<svg width="53" height="134" viewBox="0 0 81 134" fill="none" xmlns="http://www.w3.org/2000/svg">
<g clip-path="url(#clip0_203_181)">
<path d="M66.7802 7.09309C68.8042 7.09309 70.4449 5.44355 70.4449 3.40873C70.4449 1.37391 68.8042 -0.275635 66.7802 -0.275635C64.7562 -0.275635 63.1155 1.37391 63.1155 3.40873C63.1155 5.44355 64.7562 7.09309 66.7802 7.09309Z" fill="#403FF2"/>
<path d="M66.7802 38.8222C68.8042 38.8222 70.4449 37.1727 70.4449 35.1379C70.4449 33.103 68.8042 31.4535 66.7802 31.4535C64.7562 31.4535 63.1155 33.103 63.1155 35.1379C63.1155 37.1727 64.7562 38.8222 66.7802 38.8222Z" fill="#403FF2"/>
<path d="M66.7802 70.5465C68.8042 70.5465 70.4449 68.8969 70.4449 66.8621C70.4449 64.8273 68.8042 63.1777 66.7802 63.1777C64.7562 63.1777 63.1155 64.8273 63.1155 66.8621C63.1155 68.8969 64.7562 70.5465 66.7802 70.5465Z" fill="#403FF2"/>
<path d="M66.7802 102.276C68.8042 102.276 70.4449 100.626 70.4449 98.5913C70.4449 96.5565 68.8042 94.907 66.7802 94.907C64.7562 94.907 63.1155 96.5565 63.1155 98.5913C63.1155 100.626 64.7562 102.276 66.7802 102.276Z" fill="#403FF2"/>
<path d="M66.7802 134C68.8042 134 70.4449 132.35 70.4449 130.316C70.4449 128.281 68.8042 126.631 66.7802 126.631C64.7562 126.631 63.1155 128.281 63.1155 130.316C63.1155 132.35 64.7562 134 66.7802 134Z" fill="#403FF2"/>
<path d="M35.2199 7.09309C37.2439 7.09309 38.8846 5.44355 38.8846 3.40873C38.8846 1.37391 37.2439 -0.275635 35.2199 -0.275635C33.1959 -0.275635 31.5552 1.37391 31.5552 3.40873C31.5552 5.44355 33.1959 7.09309 35.2199 7.09309Z" fill="#403FF2"/>
<path d="M35.2199 38.8222C37.2439 38.8222 38.8846 37.1727 38.8846 35.1379C38.8846 33.103 37.2439 31.4535 35.2199 31.4535C33.1959 31.4535 31.5552 33.103 31.5552 35.1379C31.5552 37.1727 33.1959 38.8222 35.2199 38.8222Z" fill="#403FF2"/>
<path d="M35.2199 70.5465C37.2439 70.5465 38.8846 68.8969 38.8846 66.8621C38.8846 64.8273 37.2439 63.1777 35.2199 63.1777C33.1959 63.1777 31.5552 64.8273 31.5552 66.8621C31.5552 68.8969 33.1959 70.5465 35.2199 70.5465Z" fill="#403FF2"/>
<path d="M35.2199 102.276C37.2439 102.276 38.8846 100.626 38.8846 98.5913C38.8846 96.5565 37.2439 94.907 35.2199 94.907C33.1959 94.907 31.5552 96.5565 31.5552 98.5913C31.5552 100.626 33.1959 102.276 35.2199 102.276Z" fill="#403FF2"/>
<path d="M35.2199 134C37.2439 134 38.8846 132.35 38.8846 130.316C38.8846 128.281 37.2439 126.631 35.2199 126.631C33.1959 126.631 31.5552 128.281 31.5552 130.316C31.5552 132.35 33.1959 134 35.2199 134Z" fill="#403FF2"/>
<path d="M3.66473 7.09309C5.6887 7.09309 7.32946 5.44355 7.32946 3.40873C7.32946 1.37391 5.6887 -0.275635 3.66473 -0.275635C1.64075 -0.275635 0 1.37391 0 3.40873C0 5.44355 1.64075 7.09309 3.66473 7.09309Z" fill="#403FF2"/>
<path d="M3.66473 38.8222C5.6887 38.8222 7.32946 37.1727 7.32946 35.1379C7.32946 33.103 5.6887 31.4535 3.66473 31.4535C1.64075 31.4535 0 33.103 0 35.1379C0 37.1727 1.64075 38.8222 3.66473 38.8222Z" fill="#403FF2"/>
<path d="M3.66473 70.5465C5.6887 70.5465 7.32946 68.8969 7.32946 66.8621C7.32946 64.8273 5.6887 63.1777 3.66473 63.1777C1.64075 63.1777 0 64.8273 0 66.8621C0 68.8969 1.64075 70.5465 3.66473 70.5465Z" fill="#403FF2"/>
<path d="M3.66473 102.276C5.6887 102.276 7.32946 100.626 7.32946 98.5913C7.32946 96.5565 5.6887 94.907 3.66473 94.907C1.64075 94.907 0 96.5565 0 98.5913C0 100.626 1.64075 102.276 3.66473 102.276Z" fill="#403FF2"/>
<path d="M3.66473 134C5.6887 134 7.32946 132.35 7.32946 130.316C7.32946 128.281 5.6887 126.631 3.66473 126.631C1.64075 126.631 0 128.281 0 130.316C0 132.35 1.64075 134 3.66473 134Z" fill="#403FF2"/>
</g>
<defs>
<clipPath id="clip0_203_181">
<rect width="102" height="134" rx="31" fill="white"/>
</clipPath>
</defs>
</svg>
