<svg width="53" height="134" viewBox="0 0 93 134" fill="none" xmlns="http://www.w3.org/2000/svg">
<g clip-path="url(#clip0_203_160)">
<path d="M89.3351 7.09309C91.3591 7.09309 92.9999 5.44355 92.9999 3.40873C92.9999 1.37391 91.3591 -0.275635 89.3351 -0.275635C87.3112 -0.275635 85.6704 1.37391 85.6704 3.40873C85.6704 5.44355 87.3112 7.09309 89.3351 7.09309Z" fill="#403FF2"/>
<path d="M89.3351 38.8221C91.3591 38.8221 92.9999 37.1726 92.9999 35.1377C92.9999 33.1029 91.3591 31.4534 89.3351 31.4534C87.3112 31.4534 85.6704 33.1029 85.6704 35.1377C85.6704 37.1726 87.3112 38.8221 89.3351 38.8221Z" fill="#403FF2"/>
<path d="M89.3351 70.5465C91.3591 70.5465 92.9999 68.8969 92.9999 66.8621C92.9999 64.8273 91.3591 63.1777 89.3351 63.1777C87.3112 63.1777 85.6704 64.8273 85.6704 66.8621C85.6704 68.8969 87.3112 70.5465 89.3351 70.5465Z" fill="#403FF2"/>
<path d="M89.3351 102.276C91.3591 102.276 92.9999 100.626 92.9999 98.5913C92.9999 96.5565 91.3591 94.907 89.3351 94.907C87.3112 94.907 85.6704 96.5565 85.6704 98.5913C85.6704 100.626 87.3112 102.276 89.3351 102.276Z" fill="#403FF2"/>
<path d="M89.3351 134C91.3591 134 92.9999 132.351 92.9999 130.316C92.9999 128.281 91.3591 126.631 89.3351 126.631C87.3112 126.631 85.6704 128.281 85.6704 130.316C85.6704 132.351 87.3112 134 89.3351 134Z" fill="#403FF2"/>
<path d="M57.7802 7.09309C59.8042 7.09309 61.4449 5.44355 61.4449 3.40873C61.4449 1.37391 59.8042 -0.275635 57.7802 -0.275635C55.7562 -0.275635 54.1155 1.37391 54.1155 3.40873C54.1155 5.44355 55.7562 7.09309 57.7802 7.09309Z" fill="#403FF2"/>
<path d="M57.7802 38.8221C59.8042 38.8221 61.4449 37.1726 61.4449 35.1377C61.4449 33.1029 59.8042 31.4534 57.7802 31.4534C55.7562 31.4534 54.1155 33.1029 54.1155 35.1377C54.1155 37.1726 55.7562 38.8221 57.7802 38.8221Z" fill="#403FF2"/>
<path d="M57.7802 70.5465C59.8042 70.5465 61.4449 68.8969 61.4449 66.8621C61.4449 64.8273 59.8042 63.1777 57.7802 63.1777C55.7562 63.1777 54.1155 64.8273 54.1155 66.8621C54.1155 68.8969 55.7562 70.5465 57.7802 70.5465Z" fill="#403FF2"/>
<path d="M57.7802 102.276C59.8042 102.276 61.4449 100.626 61.4449 98.5913C61.4449 96.5565 59.8042 94.907 57.7802 94.907C55.7562 94.907 54.1155 96.5565 54.1155 98.5913C54.1155 100.626 55.7562 102.276 57.7802 102.276Z" fill="#403FF2"/>
<path d="M57.7802 134C59.8042 134 61.4449 132.351 61.4449 130.316C61.4449 128.281 59.8042 126.631 57.7802 126.631C55.7562 126.631 54.1155 128.281 54.1155 130.316C54.1155 132.351 55.7562 134 57.7802 134Z" fill="#403FF2"/>
<path d="M26.2199 7.09309C28.2439 7.09309 29.8846 5.44355 29.8846 3.40873C29.8846 1.37391 28.2439 -0.275635 26.2199 -0.275635C24.1959 -0.275635 22.5552 1.37391 22.5552 3.40873C22.5552 5.44355 24.1959 7.09309 26.2199 7.09309Z" fill="#403FF2"/>
<path d="M26.2199 38.8221C28.2439 38.8221 29.8846 37.1726 29.8846 35.1377C29.8846 33.1029 28.2439 31.4534 26.2199 31.4534C24.1959 31.4534 22.5552 33.1029 22.5552 35.1377C22.5552 37.1726 24.1959 38.8221 26.2199 38.8221Z" fill="#403FF2"/>
<path d="M26.2199 70.5465C28.2439 70.5465 29.8846 68.8969 29.8846 66.8621C29.8846 64.8273 28.2439 63.1777 26.2199 63.1777C24.1959 63.1777 22.5552 64.8273 22.5552 66.8621C22.5552 68.8969 24.1959 70.5465 26.2199 70.5465Z" fill="#403FF2"/>
<path d="M26.2199 102.276C28.2439 102.276 29.8846 100.626 29.8846 98.5913C29.8846 96.5565 28.2439 94.907 26.2199 94.907C24.1959 94.907 22.5552 96.5565 22.5552 98.5913C22.5552 100.626 24.1959 102.276 26.2199 102.276Z" fill="#403FF2"/>
<path d="M26.2199 134C28.2439 134 29.8846 132.351 29.8846 130.316C29.8846 128.281 28.2439 126.631 26.2199 126.631C24.1959 126.631 22.5552 128.281 22.5552 130.316C22.5552 132.351 24.1959 134 26.2199 134Z" fill="#403FF2"/>
</g>
<defs>
<clipPath id="clip0_203_160">
<rect x="-9" width="102" height="134" rx="31" fill="white"/>
</clipPath>
</defs>
</svg>
